<?xml version="1.0" encoding="utf-8"?>
<!-- Generator: Adobe Illustrator 16.0.4, SVG Export Plug-In . SVG Version: 6.00 Build 0)  -->
<!DOCTYPE svg PUBLIC "-//W3C//DTD SVG 1.1//EN" "http://www.w3.org/Graphics/SVG/1.1/DTD/svg11.dtd">
<svg version="1.1" id="Calque_1" xmlns="http://www.w3.org/2000/svg" xmlns:xlink="http://www.w3.org/1999/xlink" x="0px" y="0px"
	 width="55px" height="55px" viewBox="0 0 55 55" enable-background="new 0 0 55 55" xml:space="preserve">
<g>
	
		<radialGradient id="SVGID_1_" cx="3145.3704" cy="2522.1829" r="212.812" gradientTransform="matrix(0.1616 0 0 0.1616 -474.624 -386.4668)" gradientUnits="userSpaceOnUse">
		<stop  offset="0" style="stop-color:#456587"/>
		<stop  offset="0.2555" style="stop-color:#2C4F73"/>
		<stop  offset="0.5931" style="stop-color:#0C395D"/>
		<stop  offset="0.8524" style="stop-color:#002D50"/>
		<stop  offset="1" style="stop-color:#00294B"/>
	</radialGradient>
	<path fill="url(#SVGID_1_)" d="M26.343,0.302c-0.489-0.029-0.978-0.046-1.46-0.046C18.137,0.247,12.029,3.118,6.707,8.811
		c-4.84,5.171-6.467,9.336-6.451,14.361c0.008,2.688,0.485,5.625,1.191,9.096c1.328,6.525,5.201,12.824,10.629,17.285
		c4.153,3.412,8.786,5.158,13.67,5.189c2.529,0.018,5.125-0.426,7.759-1.334c8.498-2.932,16.631-11.332,19.771-20.422
		c0.994-2.877,1.477-5.678,1.469-8.342c-0.025-6.513-3.002-12.221-8.686-16.302C39.161,3.388,32.531,0.684,26.343,0.302z"/>
	<g>
		<path fill="#FFFFFF" d="M16.641,27.589h-1.869l-0.003,0.054c-0.017,0.364-0.231,3.542-3.076,3.542
			c-2.542,0-3.833-2.279-3.835-6.772c0.002-4.491,1.293-6.771,3.835-6.771c2.893,0,3.067,3.396,3.076,3.542l0.003,0.054h1.869
			c0.172,0,0.339-0.069,0.46-0.193c0.115-0.118,0.175-0.271,0.167-0.432c-0.038-0.881-0.49-5.279-5.601-5.279
			c-4.129,0-6.312,3.14-6.312,9.075c0,5.948,2.182,9.094,6.312,9.094c4.916,0,5.527-4.018,5.601-5.246
			c0.011-0.171-0.047-0.335-0.164-0.458C16.983,27.658,16.814,27.589,16.641,27.589z"/>
		<path fill="#62C4DD" d="M45.681,23.329L45.681,23.329l-1.607-0.7c-1.549-0.679-2.096-1.341-2.096-2.528
			c0-1.549,1.131-2.588,2.816-2.588c0.996,0,1.812,0.204,2.812,1.22l0.055,0.057l0.859-0.786c0.498-0.461,0.352-0.879,0.145-1.146
			c-0.838-0.988-2.182-1.529-3.789-1.529c-3.098,0-5.348,2.021-5.348,4.806c0,2.736,1.725,3.882,3.588,4.712l1.643,0.731
			c1.652,0.74,2.439,1.371,2.439,2.959c0,2.166-1.959,2.746-3.115,2.746c-0.994,0-2.104-0.213-3.463-1.754l-0.055-0.062
			l-0.895,0.785c-0.461,0.404-0.463,0.754-0.016,1.328c1.229,1.584,3.037,1.916,4.336,1.916c2.807,0,5.652-1.725,5.652-5.021
			C49.644,25.619,48.06,24.353,45.681,23.329z"/>
		<path fill="#62C4DD" d="M29.808,20.522c0-2.804-2.274-5.18-5.078-5.18c-1.32,0-2.521,0.504-3.425,1.327v-0.964h-1.688
			c-0.509,0-0.703,0.331-0.703,0.714v16.367c0,0.459,0.28,0.705,0.695,0.705h1.688V20.621c0-1.69,1.371-3.062,3.063-3.062
			c1.691,0,3.062,1.371,3.062,3.062v12.873h1.678c0.467,0,0.707-0.258,0.707-0.703C29.808,32.792,29.808,20.539,29.808,20.522z"/>
		<path fill="#FFFFFF" d="M39.495,16.566c0.09-0.111,0.143-0.248,0.143-0.399c0-0.281-0.182-0.517-0.436-0.604
			c-0.488-0.164-1.01-0.253-1.551-0.253c-1.32,0-2.521,0.504-3.424,1.328v-0.964h-1.689c-0.51,0-0.703,0.331-0.703,0.714v16.363
			c0,0.459,0.283,0.705,0.697,0.705h1.688v-12.87c0-1.691,1.371-3.062,3.064-3.062c0.441,0,0.861,0.098,1.242,0.265l0.975-1.226
			L39.495,16.566z"/>
	</g>
</g>
</svg>
